<?xml version="1.0" standalone="no"?>
<!DOCTYPE svg PUBLIC "-//W3C//DTD SVG 20010904//EN"
 "http://www.w3.org/TR/2001/REC-SVG-20010904/DTD/svg10.dtd">
<svg version="1.0" xmlns="http://www.w3.org/2000/svg"
 width="650.000000pt" height="260.000000pt" viewBox="0 0 650.000000 260.000000"
 preserveAspectRatio="xMidYMid meet">

<g transform="translate(0.000000,260.000000) scale(0.100000,-0.100000)"
fill="#000000" stroke="none">
<path d="M20 2390 l0 -190 28 0 c44 0 51 11 54 85 l3 70 28 -72 c29 -74 39
-83 88 -83 l29 0 0 190 0 190 -40 0 -40 0 0 -82 c0 -45 -4 -78 -8 -72 -5 5
-21 42 -36 82 l-28 72 -39 0 -39 0 0 -190z"/>
<path d="M625 1609 c-244 -128 -404 -280 -493 -467 -35 -72 -37 -83 -37 -172
0 -78 4 -102 22 -135 22 -41 73 -94 107 -112 16 -9 5 -18 -75 -61 -145 -79
-141 -58 -36 -198 129 -170 172 -219 251 -285 171 -145 333 -185 559 -140 151
30 227 75 284 164 20 32 27 36 39 26 23 -19 116 0 271 58 39 14 41 16 32 46
-5 17 -7 32 -6 34 2 1 31 -2 66 -8 44 -8 64 -17 69 -29 6 -17 16 -15 110 25
116 49 179 84 206 114 26 29 33 27 39 -17 l6 -37 119 6 c65 3 126 10 134 15
10 5 68 5 143 0 93 -7 129 -6 134 2 5 9 17 9 42 2 42 -13 268 -2 288 14 12 9
14 8 9 -5 -5 -13 11 -21 88 -41 91 -24 95 -24 105 -6 7 13 21 18 54 18 24 0
45 -4 47 -10 2 -5 77 -32 168 -60 91 -28 172 -53 181 -56 12 -3 18 4 22 26 4
16 10 30 14 30 5 0 26 -17 48 -37 30 -28 75 -49 185 -90 203 -75 274 -93 389
-100 145 -9 389 28 496 76 82 36 117 115 80 181 -8 14 -14 28 -15 33 0 10 79
9 117 -2 31 -9 33 -8 37 22 3 18 8 77 11 132 3 55 11 155 16 223 6 68 9 126 6
128 -5 6 -236 -49 -296 -70 -24 -9 -45 -16 -47 -16 -2 0 -4 29 -4 65 l0 66
-32 -6 c-18 -3 -82 -14 -143 -25 -60 -11 -111 -17 -113 -15 -2 2 20 32 49 67
62 75 125 170 168 255 17 34 31 64 31 67 0 7 -161 92 -230 121 -35 15 -122 40
-193 56 l-129 29 -21 -27 c-12 -16 -39 -47 -60 -70 l-39 -43 -42 29 c-49 34
-166 94 -166 85 0 -3 -16 8 -35 25 -68 59 -189 75 -282 36 -91 -38 -151 -122
-139 -196 12 -73 -10 -39 -47 76 l-38 115 -112 -1 c-62 0 -154 -4 -205 -7 -58
-5 -93 -3 -95 3 -5 14 -664 10 -680 -4 -9 -7 -31 -5 -73 6 -76 20 -246 22
-387 3 l-109 -14 4 -33 c2 -18 3 -33 2 -33 -2 0 -22 20 -46 45 l-43 44 -180
-9 c-208 -11 -194 -4 -252 -127 -18 -40 -36 -73 -38 -73 -2 0 -57 68 -121 150
-64 83 -120 150 -123 150 -3 0 -33 -14 -66 -31z m89 -187 c24 -49 50 -110 59
-135 15 -45 15 -47 -3 -57 -10 -5 -25 -10 -32 -10 -16 0 -146 -63 -169 -82
-66 -55 -41 -128 45 -128 24 0 80 11 125 24 l81 23 11 -41 c15 -60 39 -143 45
-159 6 -17 -80 -54 -191 -83 -95 -25 -300 -25 -364 -1 -103 40 -141 93 -141
199 1 171 165 375 405 505 33 18 66 33 73 33 7 0 32 -40 56 -88z m2874 31 c54
-40 55 -109 1 -142 -41 -25 -119 -34 -172 -20 -49 13 -97 54 -97 84 0 26 43
68 90 90 48 21 141 15 178 -12z m-1607 -3 c125 -36 164 -137 85 -216 -24 -24
-47 -35 -94 -44 -74 -15 -78 -26 -32 -116 16 -32 27 -60 26 -62 -16 -16 -256
-28 -303 -16 -29 8 -48 96 -66 301 l-13 153 30 5 c77 12 98 13 211 10 66 -2
136 -9 156 -15z m-555 -55 c95 -136 156 -272 166 -370 3 -28 1 -30 -74 -51
-133 -38 -124 -42 -175 58 l-45 87 -46 -6 c-26 -3 -49 -7 -51 -9 -4 -4 -29
-188 -31 -221 0 -7 -12 -13 -27 -13 -41 0 -227 32 -236 40 -10 9 53 247 90
339 25 63 80 180 90 191 7 8 132 17 218 16 l79 -1 42 -60z m1250 54 c4 -6 9
-51 12 -100 l5 -89 -79 -1 c-44 -1 -89 -4 -101 -7 l-21 -7 23 -74 c13 -41 22
-78 20 -81 -6 -9 -313 -45 -320 -38 -3 3 5 43 19 89 13 46 23 85 21 87 -3 3
-73 -14 -101 -25 -12 -4 -14 15 -14 120 l0 126 33 4 c81 10 496 7 503 -4z
m417 -24 c5 -16 38 -108 74 -203 36 -96 63 -175 61 -178 -3 -2 -40 -8 -84 -14
-43 -5 -96 -12 -118 -15 l-39 -6 7 61 7 60 -45 0 -44 0 -7 -50 c-8 -57 -1 -54
-135 -51 -113 3 -132 8 -124 34 14 48 84 217 123 299 l42 87 72 4 c40 2 101 3
136 3 63 -1 65 -2 74 -31z m1267 -106 c50 -23 90 -46 90 -51 0 -14 -30 -68
-73 -133 -53 -78 -216 -265 -231 -265 -13 0 -132 80 -198 132 l-38 30 0 -49
c0 -76 -3 -77 -119 -70 -125 9 -201 24 -201 42 0 41 139 405 155 405 19 0 95
-54 190 -136 l90 -77 28 119 c15 65 29 124 32 131 6 18 172 -28 275 -78z
m-937 -90 c55 -12 111 -25 124 -30 l22 -8 -18 -53 c-17 -49 -57 -134 -79 -166
-8 -11 -26 -9 -101 14 l-91 27 0 66 c0 104 11 171 27 171 8 0 60 -9 116 -21z
m-756 -245 c64 -48 67 -102 9 -160 -23 -23 -47 -36 -76 -40 l-43 -7 24 -18
c23 -18 58 -31 109 -43 23 -5 25 -9 22 -56 -3 -39 -8 -50 -21 -50 -37 0 -120
31 -161 61 l-43 31 5 -46 6 -46 -79 0 c-43 0 -80 4 -83 9 -3 5 -15 78 -26 162
-11 85 -23 164 -26 176 -5 17 -1 23 17 28 72 16 145 23 236 22 86 -2 106 -5
130 -23z m323 -10 c62 -18 130 -78 130 -113 0 -76 -91 -147 -193 -152 -26 -2
-47 -5 -47 -8 0 -3 4 -23 9 -43 l9 -38 -73 0 -73 0 -7 79 c-6 74 0 233 11 274
5 14 18 17 93 17 51 0 110 -7 141 -16z m-751 -31 c21 -76 18 -81 -54 -88 -59
-7 -65 -10 -65 -30 0 -21 3 -22 40 -15 46 8 50 6 50 -31 0 -24 -5 -29 -34 -35
-34 -6 -54 -28 -35 -39 5 -4 34 -1 65 6 66 15 76 7 72 -56 l-3 -40 -65 -12
c-74 -14 -190 -17 -190 -5 0 4 -13 74 -30 155 -16 81 -30 154 -30 161 0 9 20
16 58 20 31 4 89 15 127 25 39 11 73 20 77 20 4 1 12 -16 17 -36z m1035 -18
c44 -9 81 -17 83 -19 10 -10 33 -155 39 -248 l7 -108 -44 0 c-24 0 -61 3 -83
7 l-38 6 5 54 c6 53 5 53 -22 53 -25 0 -31 -7 -50 -51 -23 -57 -20 -56 -123
-28 l-38 10 31 52 c17 29 56 105 87 170 31 64 59 117 62 117 3 0 41 -7 84 -15z
m-1434 -21 c111 -33 142 -113 79 -207 -17 -26 -48 -60 -69 -77 -40 -32 -219
-120 -243 -120 -8 0 -28 37 -47 88 -18 48 -55 131 -81 185 -27 54 -49 104 -49
112 0 33 314 48 410 19z m1821 -123 c84 -102 89 -102 97 11 4 63 6 67 26 63
119 -26 212 -48 219 -52 8 -5 -132 -282 -162 -321 -16 -21 -17 -21 -91 47 -41
38 -78 67 -81 65 -4 -2 -10 -29 -14 -59 -4 -32 -11 -55 -18 -55 -29 0 -202 58
-202 68 0 16 139 321 146 322 4 0 40 -40 80 -89z m-2248 2 c15 -38 49 -113 77
-168 27 -54 48 -101 46 -102 -2 -2 -63 8 -136 22 -73 15 -134 24 -137 21 -2
-2 7 -21 21 -43 14 -21 27 -49 28 -63 3 -23 -3 -26 -110 -59 -64 -19 -117 -30
-122 -25 -13 15 -100 336 -93 346 6 11 188 3 220 -9 9 -4 -3 19 -27 51 -23 31
-41 58 -39 60 4 3 198 33 230 35 11 1 24 -21 42 -66z m3097 45 c0 -18 -132
-288 -141 -288 -5 0 -34 16 -66 35 -32 19 -61 35 -65 35 -10 0 -64 -108 -99
-195 -15 -38 -31 -69 -36 -68 -16 4 -177 63 -180 67 -2 2 30 59 72 127 l76
124 -51 3 c-27 2 -50 6 -50 10 0 4 15 34 34 67 31 56 36 60 72 63 21 2 120 9
219 16 99 7 188 14 198 15 9 0 17 -5 17 -11z m334 -166 l-7 -141 -92 6 c-102
6 -135 -3 -135 -40 0 -28 6 -35 58 -76 47 -36 75 -81 66 -105 -19 -50 -109
-68 -269 -54 -110 9 -265 46 -288 68 -7 6 38 90 48 90 2 0 38 -7 80 -16 88
-18 160 -12 174 14 10 21 4 37 -31 83 -16 20 -28 45 -28 56 0 48 97 145 187
185 46 21 235 78 241 73 1 -1 -1 -66 -4 -143z m-3910 -2 c34 -91 40 -116 40
-191 1 -76 -2 -92 -29 -144 -76 -148 -272 -208 -430 -131 -70 35 -246 205
-310 300 l-40 58 25 20 c52 42 273 138 286 125 4 -3 21 -41 40 -84 49 -111
106 -161 150 -129 18 14 18 16 3 58 -9 24 -27 67 -40 95 -12 29 -20 55 -17 58
10 11 242 74 263 72 16 -2 28 -25 59 -107z"/>
<path d="M1790 1340 l0 -52 32 6 c40 8 78 32 78 50 0 21 -22 34 -68 42 l-42 7
0 -53z"/>
<path d="M1203 1320 c-6 -14 -13 -37 -17 -52 -6 -27 -5 -28 29 -28 40 0 40 3
10 75 l-13 30 -9 -25z"/>
<path d="M2948 1306 l-16 -44 30 -6 c56 -11 58 -9 32 44 -13 28 -25 50 -27 50
-1 0 -10 -20 -19 -44z"/>
<path d="M2457 924 c-2 -2 -1 -21 1 -43 l4 -39 31 10 c39 13 69 38 64 52 -3 9
-93 27 -100 20z"/>
<path d="M2867 863 c9 -61 14 -65 53 -45 34 17 50 46 33 62 -4 4 -27 11 -50
15 l-42 7 6 -39z"/>
<path d="M3242 803 l-22 -43 25 -6 c14 -4 27 -5 29 -3 2 2 0 24 -3 49 l-7 45
-22 -42z"/>
<path d="M1598 794 c-7 -6 32 -104 41 -104 3 0 24 11 46 23 50 28 59 62 20 77
-29 11 -98 14 -107 4z"/>
</g>
</svg>
